<?xml version="1.0" encoding="UTF-8"?>
<!DOCTYPE svg PUBLIC "-//W3C//DTD SVG 1.1//EN" "http://www.w3.org/Graphics/SVG/1.1/DTD/svg11.dtd">
<svg xmlns="http://www.w3.org/2000/svg" version="1.1" width="64px" height="64px" style="shape-rendering:geometricPrecision; text-rendering:geometricPrecision; image-rendering:optimizeQuality; fill-rule:evenodd; clip-rule:evenodd" xmlns:xlink="http://www.w3.org/1999/xlink">
<g><path style="opacity:0.993" fill="#1d1c1c" d="M 6.5,-0.5 C 23.1667,-0.5 39.8333,-0.5 56.5,-0.5C 59.1667,1.5 61.5,3.83333 63.5,6.5C 63.5,23.1667 63.5,39.8333 63.5,56.5C 61.5,59.1667 59.1667,61.5 56.5,63.5C 39.8333,63.5 23.1667,63.5 6.5,63.5C 3.83333,61.5 1.5,59.1667 -0.5,56.5C -0.5,39.8333 -0.5,23.1667 -0.5,6.5C 1.5,3.83333 3.83333,1.5 6.5,-0.5 Z"/></g>
<g><path style="opacity:1" fill="#db7707" d="M 28.5,14.5 C 34.8421,14.3338 41.1754,14.5005 47.5,15C 48,15.5 48.5,16 49,16.5C 49.4995,22.8246 49.6662,29.1579 49.5,35.5C 48.5,35.5 47.5,35.5 46.5,35.5C 46.6659,30.4889 46.4993,25.4889 46,20.5C 36.8333,29.6667 27.6667,38.8333 18.5,48C 16.3333,48.5 15.5,47.6667 16,45.5C 25.1667,36.3333 34.3333,27.1667 43.5,18C 38.5111,17.5007 33.5111,17.3341 28.5,17.5C 28.5,16.5 28.5,15.5 28.5,14.5 Z"/></g>
</svg>
