<?xml version="1.0" encoding="UTF-8"?>
<!DOCTYPE svg PUBLIC "-//W3C//DTD SVG 1.1//EN" "http://www.w3.org/Graphics/SVG/1.1/DTD/svg11.dtd">
<svg xmlns="http://www.w3.org/2000/svg" version="1.1" width="64px" height="64px" style="shape-rendering:geometricPrecision; text-rendering:geometricPrecision; image-rendering:optimizeQuality; fill-rule:evenodd; clip-rule:evenodd" xmlns:xlink="http://www.w3.org/1999/xlink">
<g><path style="opacity:0.987" fill="#fd8700" d="M 6.5,-0.5 C 23.1667,-0.5 39.8333,-0.5 56.5,-0.5C 59.1667,1.5 61.5,3.83333 63.5,6.5C 63.5,23.1667 63.5,39.8333 63.5,56.5C 61.5,59.1667 59.1667,61.5 56.5,63.5C 39.8333,63.5 23.1667,63.5 6.5,63.5C 3.83333,61.5 1.5,59.1667 -0.5,56.5C -0.5,39.8333 -0.5,23.1667 -0.5,6.5C 1.5,3.83333 3.83333,1.5 6.5,-0.5 Z"/></g>
<g><path style="opacity:1" fill="#30251b" d="M 24.5,9.5 C 46.6736,8.49947 55.8403,18.8328 52,40.5C 46.0839,51.5378 36.9172,55.7045 24.5,53C 12.1343,47.4365 7.30092,37.9365 10,24.5C 13.0214,17.6468 17.8548,12.6468 24.5,9.5 Z"/></g>
<g><path style="opacity:1" fill="#fb8600" d="M 26.5,11.5 C 38.3688,10.5153 46.5355,15.5153 51,26.5C 52.1257,41.043 45.459,49.3764 31,51.5C 17.0837,48.9183 10.7504,40.5849 12,26.5C 15.0214,19.6468 19.8548,14.6468 26.5,11.5 Z"/></g>
</svg>
