<?xml version="1.0" encoding="UTF-8"?>
<!DOCTYPE svg PUBLIC "-//W3C//DTD SVG 1.1//EN" "http://www.w3.org/Graphics/SVG/1.1/DTD/svg11.dtd">
<svg xmlns="http://www.w3.org/2000/svg" version="1.1" width="64px" height="64px" style="shape-rendering:geometricPrecision; text-rendering:geometricPrecision; image-rendering:optimizeQuality; fill-rule:evenodd; clip-rule:evenodd" xmlns:xlink="http://www.w3.org/1999/xlink">
<g><path style="opacity:0.989" fill="#fd8700" d="M 6.5,-0.5 C 23.1667,-0.5 39.8333,-0.5 56.5,-0.5C 59.1667,1.5 61.5,3.83333 63.5,6.5C 63.5,23.1667 63.5,39.8333 63.5,56.5C 61.5,59.1667 59.1667,61.5 56.5,63.5C 39.8333,63.5 23.1667,63.5 6.5,63.5C 3.83333,61.5 1.5,59.1667 -0.5,56.5C -0.5,39.8333 -0.5,23.1667 -0.5,6.5C 1.5,3.83333 3.83333,1.5 6.5,-0.5 Z"/></g>
<g><path style="opacity:1" fill="#30251b" d="M 34.5,9.5 C 37.3198,9.24751 39.9865,9.74751 42.5,11C 47.1872,14.8354 50.8538,19.3354 53.5,24.5C 53.423,26.299 52.923,27.9656 52,29.5C 45.1667,36.3333 38.3333,43.1667 31.5,50C 38.8258,50.4997 46.1591,50.6663 53.5,50.5C 53.5,51.5 53.5,52.5 53.5,53.5C 42.8281,53.6665 32.1615,53.4998 21.5,53C 17,49.8333 13.1667,46 10,41.5C 9.33333,39.1667 9.33333,36.8333 10,34.5C 18.369,26.2983 26.5357,17.965 34.5,9.5 Z"/></g>
<g><path style="opacity:1" fill="#fb8600" d="M 35.5,12.5 C 37.1992,12.3398 38.8659,12.5065 40.5,13C 44.6388,16.4594 47.9721,20.4594 50.5,25C 45.4573,32.0517 39.6239,38.5517 33,44.5C 28.1667,39.6667 23.3333,34.8333 18.5,30C 24.3696,24.2981 30.0362,18.4647 35.5,12.5 Z"/></g>
<g><path style="opacity:1" fill="#2e251b" d="M 36.5,17.5 C 40.0801,19.4076 43.0801,22.0743 45.5,25.5C 44.635,26.5827 43.635,26.7494 42.5,26C 39.436,23.7928 37.436,20.9594 36.5,17.5 Z"/></g>
<g><path style="opacity:1" fill="#f58301" d="M 15.5,32.5 C 20.7405,36.233 25.5738,40.5663 30,45.5C 29.1433,50.1176 26.31,51.6176 21.5,50C 17.3995,46.5726 14.0661,42.5726 11.5,38C 12.6502,36.019 13.9835,34.1857 15.5,32.5 Z"/></g>
</svg>
