<?xml version="1.0" encoding="UTF-8"?>
<!DOCTYPE svg PUBLIC "-//W3C//DTD SVG 1.1//EN" "http://www.w3.org/Graphics/SVG/1.1/DTD/svg11.dtd">
<svg xmlns="http://www.w3.org/2000/svg" version="1.1" width="64px" height="64px" style="shape-rendering:geometricPrecision; text-rendering:geometricPrecision; image-rendering:optimizeQuality; fill-rule:evenodd; clip-rule:evenodd" xmlns:xlink="http://www.w3.org/1999/xlink">
<g><path style="opacity:0.992" fill="#1e1d1c" d="M 6.5,-0.5 C 23.1667,-0.5 39.8333,-0.5 56.5,-0.5C 59.1667,1.5 61.5,3.83333 63.5,6.5C 63.5,23.1667 63.5,39.8333 63.5,56.5C 61.5,59.1667 59.1667,61.5 56.5,63.5C 39.8333,63.5 23.1667,63.5 6.5,63.5C 3.83333,61.5 1.5,59.1667 -0.5,56.5C -0.5,39.8333 -0.5,23.1667 -0.5,6.5C 1.5,3.83333 3.83333,1.5 6.5,-0.5 Z"/></g>
<g><path style="opacity:1" fill="#e37b05" d="M 28.5,10.5 C 31.4869,10.9978 34.4869,11.4978 37.5,12C 39.0368,13.1096 39.7035,14.6096 39.5,16.5C 41.1439,16.2865 42.6439,16.6198 44,17.5C 44.9487,27.5998 44.6154,37.5998 43,47.5C 39.8796,50.7076 36.0463,52.0409 31.5,51.5C 27.8773,51.7562 24.544,50.9229 21.5,49C 17.2096,43.8836 13.5429,38.3836 10.5,32.5C 12.9068,27.5129 16.0734,27.1796 20,31.5C 20.3333,25.8333 20.6667,20.1667 21,14.5C 23.9736,13.9179 26.4736,12.5845 28.5,10.5 Z"/></g>
<g><path style="opacity:1" fill="#231f1c" d="M 28.5,13.5 C 29.5,13.5 30.5,13.5 31.5,13.5C 31.5,19.1667 31.5,24.8333 31.5,30.5C 32.5,30.5 33.5,30.5 34.5,30.5C 34.1718,25.1254 34.5052,19.7921 35.5,14.5C 36.4954,20.1278 36.8288,25.7945 36.5,31.5C 37.5,31.5 38.5,31.5 39.5,31.5C 39.5,27.5 39.5,23.5 39.5,19.5C 40.5,19.5 41.5,19.5 42.5,19.5C 42.9137,28.5822 42.4137,37.5822 41,46.5C 35.7714,49.8061 30.2714,50.3061 24.5,48C 19.4316,43.3426 15.7649,37.8426 13.5,31.5C 14.552,31.3505 15.552,31.5172 16.5,32C 18.2929,33.7799 19.9596,35.6132 21.5,37.5C 22.3311,30.5236 22.8311,23.5236 23,16.5C 23.414,16.0426 23.914,15.7093 24.5,15.5C 25.0489,20.6443 25.8823,25.6443 27,30.5C 28.4494,25.0187 28.9494,19.352 28.5,13.5 Z"/></g>
</svg>
