<?xml version="1.0" encoding="UTF-8"?>
<!DOCTYPE svg PUBLIC "-//W3C//DTD SVG 1.1//EN" "http://www.w3.org/Graphics/SVG/1.1/DTD/svg11.dtd">
<svg xmlns="http://www.w3.org/2000/svg" version="1.1" width="64px" height="64px" style="shape-rendering:geometricPrecision; text-rendering:geometricPrecision; image-rendering:optimizeQuality; fill-rule:evenodd; clip-rule:evenodd" xmlns:xlink="http://www.w3.org/1999/xlink">
<g><path style="opacity:0.99" fill="#fd8700" d="M 6.5,-0.5 C 23.1667,-0.5 39.8333,-0.5 56.5,-0.5C 59.1667,1.5 61.5,3.83333 63.5,6.5C 63.5,23.1667 63.5,39.8333 63.5,56.5C 61.5,59.1667 59.1667,61.5 56.5,63.5C 39.8333,63.5 23.1667,63.5 6.5,63.5C 3.83333,61.5 1.5,59.1667 -0.5,56.5C -0.5,39.8333 -0.5,23.1667 -0.5,6.5C 1.5,3.83333 3.83333,1.5 6.5,-0.5 Z"/></g>
<g><path style="opacity:1" fill="#2a221c" d="M 27.5,11.5 C 30.8499,11.335 34.1832,11.5017 37.5,12C 39.0368,13.1096 39.7035,14.6096 39.5,16.5C 41.3904,16.2965 42.8904,16.9632 44,18.5C 44.6667,27.5 44.6667,36.5 44,45.5C 42.7494,48.3807 40.5827,50.214 37.5,51C 29.4157,53.302 22.9157,51.1353 18,44.5C 15.2348,40.6298 12.7348,36.6298 10.5,32.5C 13.3652,27.3071 16.5319,27.3071 20,32.5C 20.3333,26.8333 20.6667,21.1667 21,15.5C 23.2073,14.1139 25.3739,12.7806 27.5,11.5 Z"/></g>
<g><path style="opacity:1" fill="#f18102" d="M 28.5,13.5 C 29.5,13.5 30.5,13.5 31.5,13.5C 31.1712,19.2055 31.5046,24.8722 32.5,30.5C 33.4948,25.2079 33.8282,19.8746 33.5,14.5C 34.8333,14.5 36.1667,14.5 37.5,14.5C 37.1712,20.2055 37.5046,25.8722 38.5,31.5C 39.4922,27.2172 39.8256,22.8839 39.5,18.5C 40.5,18.5 41.5,18.5 42.5,18.5C 42.6664,27.1731 42.4998,35.8397 42,44.5C 40.8906,46.8147 39.0573,48.3147 36.5,49C 30.3062,50.7114 25.1396,49.2114 21,44.5C 18.3609,40.3612 15.5276,36.3612 12.5,32.5C 13.723,31.3861 15.0563,31.2195 16.5,32C 18.0175,33.6851 19.6841,35.1851 21.5,36.5C 22.3309,29.8581 22.8309,23.1915 23,16.5C 23.414,16.0426 23.914,15.7093 24.5,15.5C 25.4933,20.1196 25.8266,24.7863 25.5,29.5C 26.5,29.5 27.5,29.5 28.5,29.5C 28.5,24.1667 28.5,18.8333 28.5,13.5 Z"/></g>
</svg>
