<?xml version="1.0" encoding="UTF-8"?>
<!DOCTYPE svg PUBLIC "-//W3C//DTD SVG 1.1//EN" "http://www.w3.org/Graphics/SVG/1.1/DTD/svg11.dtd">
<svg xmlns="http://www.w3.org/2000/svg" version="1.1" width="64px" height="64px" style="shape-rendering:geometricPrecision; text-rendering:geometricPrecision; image-rendering:optimizeQuality; fill-rule:evenodd; clip-rule:evenodd" xmlns:xlink="http://www.w3.org/1999/xlink">
<g><path style="opacity:0.992" fill="#1e1d1c" d="M 6.5,-0.5 C 23.1667,-0.5 39.8333,-0.5 56.5,-0.5C 59.1667,1.5 61.5,3.83333 63.5,6.5C 63.5,23.1667 63.5,39.8333 63.5,56.5C 61.5,59.1667 59.1667,61.5 56.5,63.5C 39.8333,63.5 23.1667,63.5 6.5,63.5C 3.83333,61.5 1.5,59.1667 -0.5,56.5C -0.5,39.8333 -0.5,23.1667 -0.5,6.5C 1.5,3.83333 3.83333,1.5 6.5,-0.5 Z"/></g>
<g><path style="opacity:1" fill="#f88500" d="M 43.5,9.5 C 51.3278,8.49313 54.4944,11.8265 53,19.5C 41.8333,30.6667 30.6667,41.8333 19.5,53C 16.1832,53.4983 12.8499,53.665 9.5,53.5C 9.33499,50.1501 9.50166,46.8168 10,43.5C 21.3687,32.2984 32.5354,20.9651 43.5,9.5 Z"/></g>
<g><path style="opacity:1" fill="#36281b" d="M 45.5,12.5 C 48.1268,12.2933 49.7935,13.46 50.5,16C 49.0367,18.6312 47.0367,20.7979 44.5,22.5C 42.8333,21.5 41.5,20.1667 40.5,18.5C 42.1897,16.4807 43.8564,14.4807 45.5,12.5 Z"/></g>
<g><path style="opacity:1" fill="#29221c" d="M 17.5,49.5 C 16.1667,49.5 14.8333,49.5 13.5,49.5C 13.5,48.1667 13.5,46.8333 13.5,45.5C 20.9642,37.5351 28.6309,29.7017 36.5,22C 39.3333,22.1667 40.8333,23.6667 41,26.5C 33.2983,34.3691 25.4649,42.0358 17.5,49.5 Z"/></g>
<g><path style="opacity:1" fill="#6d4212" d="M 13.5,45.5 C 13.5,46.8333 13.5,48.1667 13.5,49.5C 14.8333,49.5 16.1667,49.5 17.5,49.5C 16.0813,50.4511 14.4147,50.7845 12.5,50.5C 12.2155,48.5853 12.5489,46.9187 13.5,45.5 Z"/></g>
</svg>
