<?xml version="1.0" encoding="UTF-8"?>
<!DOCTYPE svg PUBLIC "-//W3C//DTD SVG 1.1//EN" "http://www.w3.org/Graphics/SVG/1.1/DTD/svg11.dtd">
<svg xmlns="http://www.w3.org/2000/svg" version="1.1" width="64px" height="64px" style="shape-rendering:geometricPrecision; text-rendering:geometricPrecision; image-rendering:optimizeQuality; fill-rule:evenodd; clip-rule:evenodd" xmlns:xlink="http://www.w3.org/1999/xlink">
<g><path style="opacity:0.99" fill="#fd8700" d="M 6.5,-0.5 C 23.1667,-0.5 39.8333,-0.5 56.5,-0.5C 59.1667,1.5 61.5,3.83333 63.5,6.5C 63.5,23.1667 63.5,39.8333 63.5,56.5C 61.5,59.1667 59.1667,61.5 56.5,63.5C 39.8333,63.5 23.1667,63.5 6.5,63.5C 3.83333,61.5 1.5,59.1667 -0.5,56.5C -0.5,39.8333 -0.5,23.1667 -0.5,6.5C 1.5,3.83333 3.83333,1.5 6.5,-0.5 Z"/></g>
<g><path style="opacity:1" fill="#221f1c" d="M 43.5,9.5 C 52.2431,8.73444 55.0765,12.4011 52,20.5C 41.1667,31.3333 30.3333,42.1667 19.5,53C 16.1832,53.4983 12.8499,53.665 9.5,53.5C 9.33499,50.1501 9.50166,46.8168 10,43.5C 21.3687,32.2984 32.5354,20.9651 43.5,9.5 Z"/></g>
<g><path style="opacity:1" fill="#e57c04" d="M 45.5,12.5 C 48.1268,12.2933 49.7935,13.46 50.5,16C 49.0367,18.6312 47.0367,20.7979 44.5,22.5C 42.8333,21.5 41.5,20.1667 40.5,18.5C 42.1897,16.4807 43.8564,14.4807 45.5,12.5 Z"/></g>
<g><path style="opacity:1" fill="#f08102" d="M 36.5,21.5 C 39.3228,22.1476 40.8228,23.8142 41,26.5C 33.1667,34.3333 25.3333,42.1667 17.5,50C 15.8659,50.4935 14.1992,50.6602 12.5,50.5C 12.3398,48.8008 12.5065,47.1341 13,45.5C 21.0358,37.6316 28.8691,29.6316 36.5,21.5 Z"/></g>
</svg>
