<?xml version="1.0" encoding="UTF-8"?>
<!DOCTYPE svg PUBLIC "-//W3C//DTD SVG 1.1//EN" "http://www.w3.org/Graphics/SVG/1.1/DTD/svg11.dtd">
<svg xmlns="http://www.w3.org/2000/svg" version="1.1" width="64px" height="64px" style="shape-rendering:geometricPrecision; text-rendering:geometricPrecision; image-rendering:optimizeQuality; fill-rule:evenodd; clip-rule:evenodd" xmlns:xlink="http://www.w3.org/1999/xlink">
<g><path style="opacity:0.988" fill="#fd8700" d="M 6.5,-0.5 C 23.1667,-0.5 39.8333,-0.5 56.5,-0.5C 59.1667,1.5 61.5,3.83333 63.5,6.5C 63.5,23.1667 63.5,39.8333 63.5,56.5C 61.5,59.1667 59.1667,61.5 56.5,63.5C 39.8333,63.5 23.1667,63.5 6.5,63.5C 3.83333,61.5 1.5,59.1667 -0.5,56.5C -0.5,39.8333 -0.5,23.1667 -0.5,6.5C 1.5,3.83333 3.83333,1.5 6.5,-0.5 Z"/></g>
<g><path style="opacity:1" fill="#30251b" d="M 15.5,15.5 C 26.9102,15.0666 38.2436,15.5666 49.5,17C 51.0488,18.214 52.2155,19.714 53,21.5C 53.9278,28.9402 53.5945,36.2735 52,43.5C 50.6811,45.4875 48.8477,46.6541 46.5,47C 35.402,47.9537 24.402,47.6204 13.5,46C 11.9512,44.786 10.7845,43.286 10,41.5C 9.33333,34.8333 9.33333,28.1667 10,21.5C 11.3597,18.9774 13.193,16.9774 15.5,15.5 Z"/></g>
<g><path style="opacity:1" fill="#fb8600" d="M 15.5,18.5 C 26.9355,18.0441 38.2688,18.5441 49.5,20C 50.1258,20.7504 50.6258,21.5838 51,22.5C 51.6667,28.5 51.6667,34.5 51,40.5C 50.1667,42 49,43.1667 47.5,44C 36.4534,44.8105 25.4534,44.6439 14.5,43.5C 13.6667,42.5 12.8333,41.5 12,40.5C 11.3333,34.5 11.3333,28.5 12,22.5C 12.6897,20.6498 13.8564,19.3164 15.5,18.5 Z"/></g>
</svg>
