<?xml version="1.0" encoding="UTF-8"?>
<!DOCTYPE svg PUBLIC "-//W3C//DTD SVG 1.1//EN" "http://www.w3.org/Graphics/SVG/1.1/DTD/svg11.dtd">
<svg xmlns="http://www.w3.org/2000/svg" version="1.1" width="64px" height="64px" style="shape-rendering:geometricPrecision; text-rendering:geometricPrecision; image-rendering:optimizeQuality; fill-rule:evenodd; clip-rule:evenodd" xmlns:xlink="http://www.w3.org/1999/xlink">
<g><path style="opacity:0.991" fill="#1e1d1c" d="M 6.5,-0.5 C 23.1667,-0.5 39.8333,-0.5 56.5,-0.5C 59.1667,1.5 61.5,3.83333 63.5,6.5C 63.5,23.1667 63.5,39.8333 63.5,56.5C 61.5,59.1667 59.1667,61.5 56.5,63.5C 39.8333,63.5 23.1667,63.5 6.5,63.5C 3.83333,61.5 1.5,59.1667 -0.5,56.5C -0.5,39.8333 -0.5,23.1667 -0.5,6.5C 1.5,3.83333 3.83333,1.5 6.5,-0.5 Z"/></g>
<g><path style="opacity:1" fill="#e87d03" d="M 15.5,15.5 C 26.9355,15.0441 38.2688,15.5441 49.5,17C 50.6667,18.1667 51.8333,19.3333 53,20.5C 53.6667,27.8333 53.6667,35.1667 53,42.5C 51.4571,44.3783 49.6238,45.8783 47.5,47C 36.0692,47.9552 24.7358,47.6219 13.5,46C 12.3333,44.8333 11.1667,43.6667 10,42.5C 9.33333,35.1667 9.33333,27.8333 10,20.5C 11.7297,18.5981 13.563,16.9314 15.5,15.5 Z"/></g>
<g><path style="opacity:1" fill="#1f1e1c" d="M 15.5,18.5 C 26.1719,18.3335 36.8385,18.5002 47.5,19C 48.6667,20.1667 49.8333,21.3333 51,22.5C 51.9148,28.9441 51.5815,35.2774 50,41.5C 49.1667,42.3333 48.3333,43.1667 47.5,44C 36.8333,44.6667 26.1667,44.6667 15.5,44C 12.0336,40.425 10.7003,36.0916 11.5,31C 10.6747,25.9924 12.008,21.8258 15.5,18.5 Z"/></g>
</svg>
