<?xml version="1.0" encoding="UTF-8"?>
<!DOCTYPE svg PUBLIC "-//W3C//DTD SVG 1.1//EN" "http://www.w3.org/Graphics/SVG/1.1/DTD/svg11.dtd">
<svg xmlns="http://www.w3.org/2000/svg" version="1.1" width="64px" height="64px" style="shape-rendering:geometricPrecision; text-rendering:geometricPrecision; image-rendering:optimizeQuality; fill-rule:evenodd; clip-rule:evenodd" xmlns:xlink="http://www.w3.org/1999/xlink">
<g><path style="opacity:0.991" fill="#fc8600" d="M 6.5,-0.5 C 23.1667,-0.5 39.8333,-0.5 56.5,-0.5C 59.1667,1.5 61.5,3.83333 63.5,6.5C 63.5,23.1667 63.5,39.8333 63.5,56.5C 61.5,59.1667 59.1667,61.5 56.5,63.5C 39.8333,63.5 23.1667,63.5 6.5,63.5C 3.83333,61.5 1.5,59.1667 -0.5,56.5C -0.5,39.8333 -0.5,23.1667 -0.5,6.5C 1.5,3.83333 3.83333,1.5 6.5,-0.5 Z"/></g>
<g><path style="opacity:1" fill="#31261b" d="M 14.5,12.5 C 19.5018,12.5218 19.8352,13.8552 15.5,16.5C 14.5713,15.3112 14.238,13.9778 14.5,12.5 Z"/></g>
<g><path style="opacity:1" fill="#33271b" d="M 45.5,12.5 C 47.1667,12.5 48.8333,12.5 50.5,12.5C 50.762,13.9778 50.4287,15.3112 49.5,16.5C 47.7996,15.3901 46.4663,14.0568 45.5,12.5 Z"/></g>
<g><path style="opacity:1" fill="#3f2c19" d="M 22.5,12.5 C 23.9778,12.238 25.3112,12.5713 26.5,13.5C 25.8333,13.8333 25.1667,14.1667 24.5,14.5C 23.2867,14.2528 22.62,13.5862 22.5,12.5 Z"/></g>
<g><path style="opacity:1" fill="#4f3419" d="M 29.5,12.5 C 31.288,12.2148 32.9547,12.5481 34.5,13.5C 33.6667,13.8333 32.8333,14.1667 32,14.5C 30.6244,14.3158 29.7911,13.6491 29.5,12.5 Z"/></g>
<g><path style="opacity:1" fill="#4f3418" d="M 37.5,12.5 C 39.288,12.2148 40.9547,12.5481 42.5,13.5C 41.6667,13.8333 40.8333,14.1667 40,14.5C 38.6244,14.3158 37.7911,13.6491 37.5,12.5 Z"/></g>
<g><path style="opacity:1" fill="#4e3418" d="M 14.5,20.5 C 15.5862,20.62 16.2528,21.2867 16.5,22.5C 16.1667,23.1667 15.8333,23.8333 15.5,24.5C 14.5713,23.3112 14.238,21.9778 14.5,20.5 Z"/></g>
<g><path style="opacity:1" fill="#3c2b19" d="M 48.5,20.5 C 49.5862,20.62 50.2528,21.2867 50.5,22.5C 50.1667,23.1667 49.8333,23.8333 49.5,24.5C 48.5713,23.3112 48.238,21.9778 48.5,20.5 Z"/></g>
<g><path style="opacity:1" fill="#2e251b" d="M 28.5,28.5 C 29.6009,27.4017 30.9343,27.235 32.5,28C 37.5,30.1667 42.5,32.3333 47.5,34.5C 48.1667,32.5 48.8333,30.5 49.5,28.5C 50.48,31.0865 50.8134,33.7531 50.5,36.5C 53.5158,36.8406 56.1825,38.0073 58.5,40C 54.1934,41.2255 49.8601,42.5588 45.5,44C 44.853,48.3617 43.5197,52.5284 41.5,56.5C 40.2982,53.9296 38.9648,51.4296 37.5,49C 29.0582,48.3925 28.7249,47.2258 36.5,45.5C 34.0583,39.6217 31.3917,33.955 28.5,28.5 Z"/></g>
<g><path style="opacity:1" fill="#4f3418" d="M 14.5,28.5 C 15.5862,28.62 16.2528,29.2867 16.5,30.5C 16.1667,31.1667 15.8333,31.8333 15.5,32.5C 14.5713,31.3112 14.238,29.9778 14.5,28.5 Z"/></g>
<g><path style="opacity:1" fill="#f38202" d="M 32.5,30.5 C 39.2609,33.0453 45.9276,35.8787 52.5,39C 49.5571,39.9417 46.7238,41.1084 44,42.5C 43,45.5 42,48.5 41,51.5C 38.1539,44.4787 35.3205,37.4787 32.5,30.5 Z"/></g>
<g><path style="opacity:1" fill="#543718" d="M 14.5,35.5 C 16.561,36.7514 16.8943,38.4181 15.5,40.5C 14.5481,38.9547 14.2148,37.288 14.5,35.5 Z"/></g>
<g><path style="opacity:1" fill="#2d241b" d="M 14.5,43.5 C 15.8181,44.7574 17.1515,46.0907 18.5,47.5C 17.3112,48.4287 15.9778,48.762 14.5,48.5C 14.5,46.8333 14.5,45.1667 14.5,43.5 Z"/></g>
<g><path style="opacity:1" fill="#2c231b" d="M 22.5,46.5 C 23.9778,46.238 25.3112,46.5713 26.5,47.5C 25.8333,47.8333 25.1667,48.1667 24.5,48.5C 23.2867,48.2528 22.62,47.5862 22.5,46.5 Z"/></g>
</svg>
