<?xml version="1.0" encoding="UTF-8"?>
<!DOCTYPE svg PUBLIC "-//W3C//DTD SVG 1.1//EN" "http://www.w3.org/Graphics/SVG/1.1/DTD/svg11.dtd">
<svg xmlns="http://www.w3.org/2000/svg" version="1.1" width="64px" height="64px" style="shape-rendering:geometricPrecision; text-rendering:geometricPrecision; image-rendering:optimizeQuality; fill-rule:evenodd; clip-rule:evenodd" xmlns:xlink="http://www.w3.org/1999/xlink">
<g><path style="opacity:0.993" fill="#1f1d1c" d="M 6.5,-0.5 C 23.1667,-0.5 39.8333,-0.5 56.5,-0.5C 59.1667,1.5 61.5,3.83333 63.5,6.5C 63.5,23.1667 63.5,39.8333 63.5,56.5C 61.5,59.1667 59.1667,61.5 56.5,63.5C 39.8333,63.5 23.1667,63.5 6.5,63.5C 3.83333,61.5 1.5,59.1667 -0.5,56.5C -0.5,39.8333 -0.5,23.1667 -0.5,6.5C 1.5,3.83333 3.83333,1.5 6.5,-0.5 Z"/></g>
<g><path style="opacity:1" fill="#ea7e03" d="M 14.5,12.5 C 19.5018,12.5218 19.8352,13.8552 15.5,16.5C 14.5713,15.3112 14.238,13.9778 14.5,12.5 Z"/></g>
<g><path style="opacity:1" fill="#e87d03" d="M 45.5,12.5 C 47.1667,12.5 48.8333,12.5 50.5,12.5C 50.762,13.9778 50.4287,15.3112 49.5,16.5C 47.7996,15.3901 46.4663,14.0568 45.5,12.5 Z"/></g>
<g><path style="opacity:1" fill="#c76e0b" d="M 21.5,12.5 C 23.288,12.2148 24.9547,12.5481 26.5,13.5C 25.6667,13.8333 24.8333,14.1667 24,14.5C 22.6244,14.3158 21.7911,13.6491 21.5,12.5 Z"/></g>
<g><path style="opacity:1" fill="#d67405" d="M 29.5,13.5 C 31.0348,12.2121 32.7015,12.2121 34.5,13.5C 32.8327,14.6664 31.166,14.6664 29.5,13.5 Z"/></g>
<g><path style="opacity:1" fill="#cb6f08" d="M 37.5,12.5 C 39.288,12.2148 40.9547,12.5481 42.5,13.5C 41.6667,13.8333 40.8333,14.1667 40,14.5C 38.6244,14.3158 37.7911,13.6491 37.5,12.5 Z"/></g>
<g><path style="opacity:1" fill="#cc7007" d="M 14.5,20.5 C 15.5862,20.62 16.2528,21.2867 16.5,22.5C 16.1667,23.1667 15.8333,23.8333 15.5,24.5C 14.5713,23.3112 14.238,21.9778 14.5,20.5 Z"/></g>
<g><path style="opacity:1" fill="#df7804" d="M 48.5,20.5 C 49.5862,20.62 50.2528,21.2867 50.5,22.5C 50.1667,23.1667 49.8333,23.8333 49.5,24.5C 48.5713,23.3112 48.238,21.9778 48.5,20.5 Z"/></g>
<g><path style="opacity:1" fill="#c76d08" d="M 14.5,27.5 C 16.561,28.7514 16.8943,30.4181 15.5,32.5C 14.5481,30.9547 14.2148,29.288 14.5,27.5 Z"/></g>
<g><path style="opacity:1" fill="#e17a05" d="M 28.5,26.5 C 34.8862,28.8545 41.2195,31.5212 47.5,34.5C 49.2258,26.7249 50.3925,27.0582 51,35.5C 53.5628,36.741 56.0628,38.0744 58.5,39.5C 54.6137,41.8946 50.2803,43.2279 45.5,43.5C 44.3633,47.4172 43.53,51.4172 43,55.5C 42.586,55.9574 42.086,56.2907 41.5,56.5C 39.7701,54.2065 38.4367,51.7065 37.5,49C 27.7432,48.3722 27.4099,47.2055 36.5,45.5C 33.0472,39.4683 30.3805,33.135 28.5,26.5 Z"/></g>
<g><path style="opacity:1" fill="#231f1c" d="M 32.5,30.5 C 39.1834,33.2299 45.8501,36.0633 52.5,39C 49.4322,40.0158 46.4322,41.1825 43.5,42.5C 42.6677,45.161 41.8344,47.8276 41,50.5C 37.8787,43.9276 35.0453,37.2609 32.5,30.5 Z"/></g>
<g><path style="opacity:1" fill="#c66d08" d="M 14.5,35.5 C 16.561,36.7514 16.8943,38.4181 15.5,40.5C 14.5481,38.9547 14.2148,37.288 14.5,35.5 Z"/></g>
<g><path style="opacity:1" fill="#e67c04" d="M 14.5,43.5 C 16.0568,44.4663 17.3901,45.7996 18.5,47.5C 17.3112,48.4287 15.9778,48.762 14.5,48.5C 14.5,46.8333 14.5,45.1667 14.5,43.5 Z"/></g>
<g><path style="opacity:1" fill="#f08002" d="M 22.5,46.5 C 23.9778,46.238 25.3112,46.5713 26.5,47.5C 25.8333,47.8333 25.1667,48.1667 24.5,48.5C 23.2867,48.2528 22.62,47.5862 22.5,46.5 Z"/></g>
</svg>
