<?xml version="1.0" encoding="UTF-8"?>
<!DOCTYPE svg PUBLIC "-//W3C//DTD SVG 1.1//EN" "http://www.w3.org/Graphics/SVG/1.1/DTD/svg11.dtd">
<svg xmlns="http://www.w3.org/2000/svg" version="1.1" width="64px" height="64px" style="shape-rendering:geometricPrecision; text-rendering:geometricPrecision; image-rendering:optimizeQuality; fill-rule:evenodd; clip-rule:evenodd" xmlns:xlink="http://www.w3.org/1999/xlink">
<g><path style="opacity:0.993" fill="#1d1d1c" d="M 6.5,-0.5 C 23.1667,-0.5 39.8333,-0.5 56.5,-0.5C 59.1667,1.5 61.5,3.83333 63.5,6.5C 63.5,23.1667 63.5,39.8333 63.5,56.5C 61.5,59.1667 59.1667,61.5 56.5,63.5C 39.8333,63.5 23.1667,63.5 6.5,63.5C 3.83333,61.5 1.5,59.1667 -0.5,56.5C -0.5,39.8333 -0.5,23.1667 -0.5,6.5C 1.5,3.83333 3.83333,1.5 6.5,-0.5 Z"/></g>
<g><path style="opacity:1" fill="#ee8002" d="M 15.5,14.5 C 26.1719,14.3335 36.8385,14.5002 47.5,15C 48.4438,17.7191 48.7771,20.5525 48.5,23.5C 47.1667,23.5 45.8333,23.5 44.5,23.5C 44.5,21.8333 44.5,20.1667 44.5,18.5C 40.8333,18.5 37.1667,18.5 33.5,18.5C 33.5,27.1667 33.5,35.8333 33.5,44.5C 35.1667,44.5 36.8333,44.5 38.5,44.5C 38.5,45.8333 38.5,47.1667 38.5,48.5C 33.8333,48.5 29.1667,48.5 24.5,48.5C 24.5,47.1667 24.5,45.8333 24.5,44.5C 26.1667,44.5 27.8333,44.5 29.5,44.5C 29.5,35.8333 29.5,27.1667 29.5,18.5C 25.8333,18.5 22.1667,18.5 18.5,18.5C 18.6602,20.1992 18.4935,21.8659 18,23.5C 17,24.8333 16,24.8333 15,23.5C 14.2642,20.408 14.4309,17.408 15.5,14.5 Z"/></g>
</svg>
